<svg width="150" height="84" viewBox="0 0 150 84" fill="none" xmlns="http://www.w3.org/2000/svg">
<path d="M7.1653 83.1963C0.962378 83.1963 -2.17572 75.7253 2.1667 71.2959L19.1555 53.9668C21.9111 51.156 26.4418 51.1691 29.181 53.9959L35.4815 60.4978C38.0908 63.1905 38.115 67.4609 35.5365 70.183L25.2805 81.0102C23.9585 82.4058 22.1208 83.1963 20.1985 83.1963H7.1653Z" fill="#53B3EA"/>
<path d="M114.903 70.5275C112.296 67.8367 112.27 63.57 114.844 60.8473L120.822 54.5238C123.549 51.6388 128.128 51.5972 130.907 54.4323L147.833 71.6978C152.176 76.1272 149.038 83.5982 142.835 83.5982H130.533C128.639 83.5982 126.825 82.8301 125.506 81.4694L114.903 70.5275Z" fill="#53B3EA"/>
<path d="M31.0547 52.112C28.4203 49.3933 28.4246 45.0728 31.0644 42.3594L70.1803 2.1541C72.9276 -0.669728 77.4631 -0.67099 80.212 2.15129L101.781 24.296C106.101 28.7317 102.958 36.1801 96.7664 36.1801H86.3363C84.4416 36.1801 82.6279 35.4121 81.3093 34.0514L80.3404 33.0515C77.6191 30.2433 73.1249 30.2091 70.3612 32.9755L60.8853 42.4609C58.1457 45.2033 58.1563 49.6498 60.909 52.379L71.5807 62.96C73.8707 65.2305 77.5904 65.1379 79.7645 62.7561L81.7848 60.5431C84.3342 57.7502 82.3528 53.2587 78.5713 53.2587C77.4074 53.2587 76.2921 52.7924 75.4746 51.964L75.1592 51.6445C71.7762 48.2168 74.2043 42.4088 79.0203 42.4088H92.523H116.904C118.248 42.4088 119.538 42.94 120.492 43.8866C122.472 45.8514 122.503 49.0433 120.562 51.0465L90.7133 81.8491C89.3822 83.2228 87.5468 83.9919 85.634 83.9776L64.6937 83.821C62.8172 83.807 61.0249 83.0401 59.719 81.6925L31.0547 52.112Z" fill="#9AFF92"/>
</svg>
